<svg width="14" height="15" viewBox="0 0 14 15" fill="none" xmlns="http://www.w3.org/2000/svg"><path d="M2.78 11.3485C2.91773 10.9581 3.17316 10.6201 3.51107 10.381C3.84897 10.1419 4.25272 10.0135 4.66667 10.0135C5.08061 10.0135 5.48436 10.1419 5.82227 10.381C6.16017 10.6201 6.4156 10.9581 6.55333 11.3485H13.3333V12.6818H6.55333C6.4156 13.0722 6.16017 13.4102 5.82227 13.6493C5.48436 13.8884 5.08061 14.0168 4.66667 14.0168C4.25272 14.0168 3.84897 13.8884 3.51107 13.6493C3.17316 13.4102 2.91773 13.0722 2.78 12.6818H0V11.3485H2.78ZM6.78 6.68181C6.91773 6.29145 7.17316 5.95343 7.51107 5.71434C7.84897 5.47524 8.25272 5.34684 8.66667 5.34684C9.08061 5.34684 9.48436 5.47524 9.82227 5.71434C10.1602 5.95343 10.4156 6.29145 10.5533 6.68181H13.3333V8.01514H10.5533C10.4156 8.4055 10.1602 8.74352 9.82227 8.98262C9.48436 9.22171 9.08061 9.35011 8.66667 9.35011C8.25272 9.35011 7.84897 9.22171 7.51107 8.98262C7.17316 8.74352 6.91773 8.4055 6.78 8.01514H0V6.68181H6.78ZM2.78 2.01514C2.91773 1.62479 3.17316 1.28677 3.51107 1.04767C3.84897 0.808573 4.25272 0.680176 4.66667 0.680176C5.08061 0.680176 5.48436 0.808573 5.82227 1.04767C6.16017 1.28677 6.4156 1.62479 6.55333 2.01514H13.3333V3.34848H6.55333C6.4156 3.73883 6.16017 4.07685 5.82227 4.31595C5.48436 4.55505 5.08061 4.68344 4.66667 4.68344C4.25272 4.68344 3.84897 4.55505 3.51107 4.31595C3.17316 4.07685 2.91773 3.73883 2.78 3.34848H0V2.01514H2.78ZM4.66667 3.34848C4.84348 3.34848 5.01305 3.27824 5.13807 3.15321C5.26309 3.02819 5.33333 2.85862 5.33333 2.68181C5.33333 2.505 5.26309 2.33543 5.13807 2.21041C5.01305 2.08538 4.84348 2.01514 4.66667 2.01514C4.48986 2.01514 4.32029 2.08538 4.19526 2.21041C4.07024 2.33543 4 2.505 4 2.68181C4 2.85862 4.07024 3.02819 4.19526 3.15321C4.32029 3.27824 4.48986 3.34848 4.66667 3.34848ZM8.66667 8.01514C8.84348 8.01514 9.01305 7.94491 9.13807 7.81988C9.26309 7.69486 9.33333 7.52529 9.33333 7.34848C9.33333 7.17167 9.26309 7.0021 9.13807 6.87707C9.01305 6.75205 8.84348 6.68181 8.66667 6.68181C8.48985 6.68181 8.32029 6.75205 8.19526 6.87707C8.07024 7.0021 8 7.17167 8 7.34848C8 7.52529 8.07024 7.69486 8.19526 7.81988C8.32029 7.94491 8.48985 8.01514 8.66667 8.01514ZM4.66667 12.6818C4.84348 12.6818 5.01305 12.6116 5.13807 12.4865C5.26309 12.3615 5.33333 12.192 5.33333 12.0151C5.33333 11.8383 5.26309 11.6688 5.13807 11.5437C5.01305 11.4187 4.84348 11.3485 4.66667 11.3485C4.48986 11.3485 4.32029 11.4187 4.19526 11.5437C4.07024 11.6688 4 11.8383 4 12.0151C4 12.192 4.07024 12.3615 4.19526 12.4865C4.32029 12.6116 4.48986 12.6818 4.66667 12.6818Z" fill="#FFF"></path></svg>