<svg width="16" height="16" viewBox="0 0 16 16" fill="#000" class="svg-icon svg-link" aria-hidden="true" focusable="false" xmlns="http://www.w3.org/2000/svg"><path d="M8.00004 7.20837V4.83337L11.1667 8.00004L8.00004 11.1667V8.79171H4.83337V7.20837H8.00004ZM8.00004 0.083374C12.37 0.083374 15.9167 3.63004 15.9167 8.00004C15.9167 12.37 12.37 15.9167 8.00004 15.9167C3.63004 15.9167 0.083374 12.37 0.083374 8.00004C0.083374 3.63004 3.63004 0.083374 8.00004 0.083374ZM8.00004 14.3334C11.4992 14.3334 14.3334 11.4992 14.3334 8.00004C14.3334 4.50087 11.4992 1.66671 8.00004 1.66671C4.50087 1.66671 1.66671 4.50087 1.66671 8.00004C1.66671 11.4992 4.50087 14.3334 8.00004 14.3334Z"></path></svg>